<!-- here is a big, empty SVG! make it into something interesting! -->
<svg xmlns="http://www.w3.org/2000/svg" xmlns:xlink="http://www.w3.org/1999/xlink" height="600px" width="600px">
    <defs>
        <linearGradient id="grad2">
            <stop offset="0%" stop-color="#000000" />
            <stop offset="50%" stop-color="#392815" />
            <stop offset="100%" stop-color="#000000" />
        </linearGradient>
        <polygon id="hex" points="50 3,100 28,100 75, 50 100,3 75,3 25" stroke="black" fill="url(#grad2)" stroke-width="5" />
        <g id="bean">
            <path d="m0,0 a3,1.5,0,0,0,30,0 a3,1.5,0,0,0,-30,0" stroke="#66503A" stroke-width="10" fill="#66503A" />
            <path d="m0,0 c10,5,20,-5,30,0" stroke="white" stroke-width="2.5" />
        </g>
        <g id="cup" stroke="#000000" stroke-width="10" fill="gray">
            <linearGradient id="grad1">
                <stop offset="0%" stop-color="#803905" />
                <stop offset="100%" stop-color="#E6D0A3" />
            </linearGradient>
            <path d="m200,400 a3,1,0,0,0,200,0 v-200 a3,1,0,0,1,-200,0 z" />
            <path d="m200,200 a3,1,0,0,1,200,0" />
            <ellipse cx="300" cy="200" rx="96" ry="29" fill="url(#grad1)" />
            <g id="beans">
                <use href="#bean" transform="translate(10 20) rotate(45)" />
                <use href="#bean" transform="translate(90 40) rotate(120)" />
                <use href="#bean" transform="translate(30 90) rotate(150)" />
            </g>
            <use href="#hex" transform="translate(225 250) scale(1.5 1.6)" />
            <use href="#beans" transform="translate(260 265)" />
        </g>
    </defs>
    <use href="#cup" transform="translate(100,100)" />
    <use href="#cup" transform="translate(-150,-100)" />
</svg>

