<?xml version="1.0" encoding="utf-8"?>
<!DOCTYPE svg PUBLIC "-//W3C//DTD SVG 1.1//EN" "http://www.w3.org/Graphics/SVG/1.1/DTD/svg11.dtd">
<svg version="1.1" id="Layer_1" xmlns="http://www.w3.org/2000/svg" xmlns:xlink="http://www.w3.org/1999/xlink" x="0px" y="0px" width="320px" height="340px" viewBox="0 0 320 340" enable-background="new 0 0 320 340" xml:space="preserve">
<path fill-rule="evenodd" clip-rule="evenodd" fill="#90c5eb" d="M0,0h320v343.001H0V0z"/>
<g>
	<path fill="#FFFFFF" d="M168.745,227.501c0,4.813-3.936,8.75-8.745,8.75s-8.745-3.938-8.745-8.75s3.936-8.75,8.745-8.75
		S168.745,222.688,168.745,227.501z M191.484,210.001c0,1.859-1.641,3.5-3.498,3.5h-55.971c-1.858,0-3.498-1.641-3.498-3.5v-77
		c0-1.859,1.64-3.5,3.498-3.5h55.971c1.857,0,3.498,1.641,3.498,3.5V210.001z M170.494,117.251c0,0.984-0.765,1.75-1.749,1.75
		h-17.49c-0.984,0-1.75-0.766-1.75-1.75s0.766-1.75,1.75-1.75h17.49C169.729,115.501,170.494,116.267,170.494,117.251z
		 M201.978,115.501c0-7.656-6.34-14-13.992-14h-55.971c-7.652,0-13.993,6.344-13.993,14v112c0,7.656,6.341,14,13.993,14h55.971
		c7.652,0,13.992-6.344,13.992-14V115.501z"/>
</g>
</svg>