<?xml version="1.0" encoding="utf-8"?>
<!DOCTYPE svg PUBLIC "-//W3C//DTD SVG 1.1//EN" "http://www.w3.org/Graphics/SVG/1.1/DTD/svg11.dtd">
<svg version="1.1" id="Layer_1" xmlns="http://www.w3.org/2000/svg" xmlns:xlink="http://www.w3.org/1999/xlink" x="0px" y="0px" width="320px" height="340px" viewBox="0 0 320 340" enable-background="new 0 0 320 340" xml:space="preserve">
<path fill-rule="evenodd" clip-rule="evenodd" fill="#84dbbd" d="M0,0h320v343H0V0z"/>
<g>
	<path fill="#FFFFFF" d="M109.277,159.5h20.177l18.74,41.563L109.277,159.5z M160.001,207.75l-21.802-48.25h43.603L160.001,207.75z
		 M129.642,151.5h-21.614l17.991-24h16.366L129.642,151.5z M171.807,201.063l18.74-41.563h20.178L171.807,201.063z M138.699,151.5
		l12.743-24h17.116l12.743,24H138.699z M190.359,151.5l-12.743-24h16.367l17.99,24H190.359z M199.168,121.125
		c-0.75-1.063-1.937-1.625-3.186-1.625H124.02c-1.25,0-2.437,0.563-3.186,1.625l-23.988,32c-1.187,1.5-1.062,3.688,0.25,5.125
		l59.969,64c0.75,0.813,1.812,1.25,2.937,1.25c1.124,0,2.187-0.438,2.936-1.25l59.969-64c1.312-1.438,1.437-3.625,0.25-5.125
		L199.168,121.125z"/>
</g>
</svg>