<?xml version="1.0" encoding="utf-8"?>
<!DOCTYPE svg PUBLIC "-//W3C//DTD SVG 1.1//EN" "http://www.w3.org/Graphics/SVG/1.1/DTD/svg11.dtd">
<svg version="1.1" id="Layer_1" xmlns="http://www.w3.org/2000/svg" xmlns:xlink="http://www.w3.org/1999/xlink" x="0px" y="0px" width="320px" height="340px" viewBox="0 0 320 340" enable-background="new 0 0 320 340" xml:space="preserve">
<path fill-rule="evenodd" clip-rule="evenodd" fill="#e392ad" d="M0,0h320v343.001H0V0z"/>
<g>
	<path fill="#FFFFFF" d="M118.88,186.356c0-0.643-0.499-1.143-1.142-1.143h-6.854c-0.643,0-1.143,0.5-1.143,1.143v6.857
		c0,0.643,0.5,1.143,1.143,1.143h6.854c0.643,0,1.142-0.5,1.142-1.143V186.356z M128.018,168.072c0-0.643-0.499-1.143-1.142-1.143
		h-15.991c-0.643,0-1.143,0.5-1.143,1.143v6.857c0,0.643,0.5,1.143,1.143,1.143h15.991c0.643,0,1.142-0.5,1.142-1.143V168.072z
		 M118.88,149.787c0-0.643-0.499-1.143-1.142-1.143h-6.854c-0.643,0-1.143,0.5-1.143,1.143v6.857c0,0.643,0.5,1.143,1.143,1.143
		h6.854c0.643,0,1.142-0.5,1.142-1.143V149.787z M191.982,186.356c0-0.643-0.499-1.143-1.142-1.143H129.16
		c-0.643,0-1.143,0.5-1.143,1.143v6.857c0,0.643,0.5,1.143,1.143,1.143h61.681c0.643,0,1.142-0.5,1.142-1.143V186.356z
		 M146.294,168.072c0-0.643-0.5-1.143-1.142-1.143h-6.854c-0.643,0-1.143,0.5-1.143,1.143v6.857c0,0.643,0.5,1.143,1.143,1.143
		h6.854c0.642,0,1.142-0.5,1.142-1.143V168.072z M137.156,149.787c0-0.643-0.5-1.143-1.143-1.143h-6.854
		c-0.643,0-1.143,0.5-1.143,1.143v6.857c0,0.643,0.5,1.143,1.143,1.143h6.854c0.643,0,1.143-0.5,1.143-1.143V149.787z
		 M164.569,168.072c0-0.643-0.499-1.143-1.142-1.143h-6.854c-0.643,0-1.143,0.5-1.143,1.143v6.857c0,0.643,0.5,1.143,1.143,1.143
		h6.854c0.643,0,1.142-0.5,1.142-1.143V168.072z M155.432,149.787c0-0.643-0.5-1.143-1.143-1.143h-6.854
		c-0.643,0-1.142,0.5-1.142,1.143v6.857c0,0.643,0.499,1.143,1.142,1.143h6.854c0.643,0,1.143-0.5,1.143-1.143V149.787z
		 M182.846,168.072c0-0.643-0.5-1.143-1.143-1.143h-6.854c-0.643,0-1.143,0.5-1.143,1.143v6.857c0,0.643,0.5,1.143,1.143,1.143
		h6.854c0.643,0,1.143-0.5,1.143-1.143V168.072z M210.259,186.356c0-0.643-0.5-1.143-1.143-1.143h-6.853
		c-0.643,0-1.143,0.5-1.143,1.143v6.857c0,0.643,0.5,1.143,1.143,1.143h6.853c0.643,0,1.143-0.5,1.143-1.143V186.356z
		 M173.707,149.787c0-0.643-0.5-1.143-1.143-1.143h-6.853c-0.643,0-1.143,0.5-1.143,1.143v6.857c0,0.643,0.5,1.143,1.143,1.143
		h6.853c0.643,0,1.143-0.5,1.143-1.143V149.787z M191.982,149.787c0-0.643-0.499-1.143-1.142-1.143h-6.854
		c-0.643,0-1.142,0.5-1.142,1.143v6.857c0,0.643,0.499,1.143,1.142,1.143h6.854c0.643,0,1.142-0.5,1.142-1.143V149.787z
		 M210.259,149.787c0-0.643-0.5-1.143-1.143-1.143h-6.853c-0.643,0-1.143,0.5-1.143,1.143v17.143h-7.996
		c-0.643,0-1.143,0.5-1.143,1.143v6.857c0,0.643,0.5,1.143,1.143,1.143h15.991c0.643,0,1.143-0.5,1.143-1.143V149.787z
		 M219.396,203.499H100.604v-63.998h118.792V203.499z M228.534,139.501c0-5.071-4.069-9.143-9.138-9.143H100.604
		c-5.068,0-9.138,4.071-9.138,9.143v63.998c0,5.071,4.069,9.143,9.138,9.143h118.792c5.068,0,9.138-4.071,9.138-9.143V139.501z"/>
</g>
</svg>