{
  "accessors": [
    {
      "bufferView": 2,
      "componentType": 5126,
      "count": 29737,
      "max": [169.60992431640625, 34.56317138671875, 40.66474914550781],
      "min": [-85.40103912353516, -29.54275131225586, -53.891639709472656],
      "type": "VEC3"
    },
    {
      "bufferView": 2,
      "byteOffset": 356844,
      "componentType": 5126,
      "count": 29737,
      "max": [1.0, 1.0, 1.0],
      "min": [-1.0, -1.0, -1.0],
      "type": "VEC3"
    },
    {
      "bufferView": 3,
      "componentType": 5126,
      "count": 29737,
      "max": [1.0, 1.0, 1.0, 1.0],
      "min": [-1.0, -1.0, -1.0, -1.0],
      "type": "VEC4"
    },
    {
      "bufferView": 1,
      "componentType": 5126,
      "count": 29737,
      "max": [0.9951880574226379, 0.9990073442459106],
      "min": [0.0012855030363425612, 0.001489618793129921],
      "type": "VEC2"
    },
    {
      "bufferView": 0,
      "componentType": 5125,
      "count": 132636,
      "type": "SCALAR"
    }
  ],
  "asset": {
    "extras": {
      "author": "Njan (https://sketchfab.com/Njan)",
      "license": "CC-BY-4.0 (http://creativecommons.org/licenses/by/4.0/)",
      "source": "https://sketchfab.com/3d-models/red-bull-racing-c2703044775148ba8f1b5bbfbfcd7938",
      "title": "Red Bull Racing"
    },
    "generator": "Sketchfab-10.51.0",
    "version": "2.0"
  },
  "bufferViews": [
    {
      "buffer": 0,
      "byteLength": 530544,
      "name": "floatBufferViews",
      "target": 34963
    },
    {
      "buffer": 0,
      "byteLength": 237896,
      "byteOffset": 530544,
      "byteStride": 8,
      "name": "floatBufferViews",
      "target": 34962
    },
    {
      "buffer": 0,
      "byteLength": 713688,
      "byteOffset": 768440,
      "byteStride": 12,
      "name": "floatBufferViews",
      "target": 34962
    },
    {
      "buffer": 0,
      "byteLength": 475792,
      "byteOffset": 1482128,
      "byteStride": 16,
      "name": "floatBufferViews",
      "target": 34962
    }
  ],
  "buffers": [
    {
      "byteLength": 1957920,
      "uri": "scene.bin"
    }
  ],
  "images": [
    {
      "uri": "textures/Material_25_baseColor.png"
    },
    {
      "uri": "textures/Material_25_metallicRoughness.png"
    },
    {
      "uri": "textures/Material_25_emissive.png"
    },
    {
      "uri": "textures/Material_25_normal.png"
    }
  ],
  "materials": [
    {
      "doubleSided": true,
      "emissiveFactor": [1.0, 1.0, 1.0],
      "emissiveTexture": {
        "index": 2
      },
      "name": "Material_25",
      "normalTexture": {
        "index": 3
      },
      "pbrMetallicRoughness": {
        "baseColorTexture": {
          "index": 0
        },
        "metallicRoughnessTexture": {
          "index": 1
        }
      }
    }
  ],
  "meshes": [
    {
      "name": "RedBull V.2_lp_Material #25_0",
      "primitives": [
        {
          "attributes": {
            "NORMAL": 1,
            "POSITION": 0,
            "TANGENT": 2,
            "TEXCOORD_0": 3
          },
          "indices": 4,
          "material": 0,
          "mode": 4
        }
      ]
    }
  ],
  "nodes": [
    {
      "children": [1],
      "matrix": [
        1.0, 0.0, 0.0, 0.0, 0.0, 2.220446049250313e-16, -1.0, 0.0, 0.0, 1.0,
        2.220446049250313e-16, 0.0, 0.0, 0.0, 0.0, 1.0
      ],
      "name": "Sketchfab_model"
    },
    {
      "children": [2],
      "matrix": [
        1.0, 0.0, 0.0, 0.0, 0.0, 0.0, 1.0, 0.0, 0.0, -1.0, 0.0, 0.0, 0.0, 0.0,
        0.0, 1.0
      ],
      "name": "Red Bull Final.fbx"
    },
    {
      "children": [3],
      "name": "RootNode"
    },
    {
      "children": [4],
      "matrix": [
        3.3776623764580904e-7, 6.617444900424222e-24, -0.999999999999943, 0.0,
        4.3711388225503085e-8, 0.999999999999999, 1.4764231150005303e-14, 0.0,
        0.9999999999999422, -4.371138822550557e-8, 3.3776623764580904e-7, 0.0,
        0.0, 0.0, 0.0, 1.0
      ],
      "name": "RedBull V.2_lp"
    },
    {
      "children": [5],
      "matrix": [
        0.9999999999976903, -1.9110453169918354e-6, -9.834767752789245e-7, 0.0,
        1.9110453101880733e-6, 0.9999999999981739, -6.919010426775408e-9, 0.0,
        9.83476788499671e-7, 6.9171309580803514e-9, 0.9999999999995164, 0.0,
        -43.27741622924805, 27.92937660217285, 6.613491058349609, 1.0
      ],
      "name": "Object_4"
    },
    {
      "mesh": 0,
      "name": "RedBull V.2_lp_Material #25_0"
    }
  ],
  "samplers": [
    {
      "magFilter": 9729,
      "minFilter": 9987,
      "wrapS": 10497,
      "wrapT": 10497
    }
  ],
  "scene": 0,
  "scenes": [
    {
      "name": "Sketchfab_Scene",
      "nodes": [0]
    }
  ],
  "textures": [
    {
      "sampler": 0,
      "source": 0
    },
    {
      "sampler": 0,
      "source": 1
    },
    {
      "sampler": 0,
      "source": 2
    },
    {
      "sampler": 0,
      "source": 3
    }
  ]
}
